<mxfile host="app.diagrams.net" modified="2020-07-28T07:58:41.250Z" agent="5.0 (Windows)" etag="XHkkUguR7PuHpQrICnWM" version="13.5.3" type="github">
  <diagram id="C5RBs43oDa-KdzZeNtuy" name="Page-1">
    <mxGraphModel dx="1038" dy="547" grid="1" gridSize="10" guides="1" tooltips="1" connect="1" arrows="1" fold="1" page="1" pageScale="1" pageWidth="827" pageHeight="1169" math="0" shadow="0">
      <root>
        <mxCell id="WIyWlLk6GJQsqaUBKTNV-0" />
        <mxCell id="WIyWlLk6GJQsqaUBKTNV-1" parent="WIyWlLk6GJQsqaUBKTNV-0" />
        <mxCell id="WIyWlLk6GJQsqaUBKTNV-2" value="" style="rounded=0;html=1;jettySize=auto;orthogonalLoop=1;fontSize=11;endArrow=block;endFill=0;endSize=8;strokeWidth=1;shadow=0;labelBackgroundColor=none;edgeStyle=orthogonalEdgeStyle;entryX=0.5;entryY=0;entryDx=0;entryDy=0;" parent="WIyWlLk6GJQsqaUBKTNV-1" source="WIyWlLk6GJQsqaUBKTNV-3" target="QayD689soAxfJkQ_zpG7-0" edge="1">
          <mxGeometry relative="1" as="geometry">
            <mxPoint x="162" y="170" as="targetPoint" />
          </mxGeometry>
        </mxCell>
        <mxCell id="WIyWlLk6GJQsqaUBKTNV-3" value="Start" style="rounded=1;whiteSpace=wrap;html=1;fontSize=12;glass=0;strokeWidth=1;shadow=0;" parent="WIyWlLk6GJQsqaUBKTNV-1" vertex="1">
          <mxGeometry x="102" y="80" width="120" height="40" as="geometry" />
        </mxCell>
        <mxCell id="WIyWlLk6GJQsqaUBKTNV-8" value="No" style="rounded=0;html=1;jettySize=auto;orthogonalLoop=1;fontSize=11;endArrow=block;endFill=0;endSize=8;strokeWidth=1;shadow=0;labelBackgroundColor=none;edgeStyle=orthogonalEdgeStyle;" parent="WIyWlLk6GJQsqaUBKTNV-1" target="WIyWlLk6GJQsqaUBKTNV-11" edge="1">
          <mxGeometry x="0.3333" y="20" relative="1" as="geometry">
            <mxPoint as="offset" />
            <mxPoint x="162" y="370" as="sourcePoint" />
          </mxGeometry>
        </mxCell>
        <mxCell id="WIyWlLk6GJQsqaUBKTNV-11" value="End" style="rounded=1;whiteSpace=wrap;html=1;fontSize=12;glass=0;strokeWidth=1;shadow=0;" parent="WIyWlLk6GJQsqaUBKTNV-1" vertex="1">
          <mxGeometry x="102" y="430" width="120" height="40" as="geometry" />
        </mxCell>
        <mxCell id="QayD689soAxfJkQ_zpG7-5" value="" style="edgeStyle=orthogonalEdgeStyle;rounded=0;orthogonalLoop=1;jettySize=auto;html=1;" edge="1" parent="WIyWlLk6GJQsqaUBKTNV-1" source="QayD689soAxfJkQ_zpG7-0" target="QayD689soAxfJkQ_zpG7-1">
          <mxGeometry relative="1" as="geometry" />
        </mxCell>
        <mxCell id="QayD689soAxfJkQ_zpG7-0" value="&lt;br/&gt;&lt;p style=&quot;margin-bottom: 0in&quot; align=&quot;LEFT&quot;&gt;Vacancy request form&lt;/p&gt;&lt;br/&gt;" style="rounded=0;whiteSpace=wrap;html=1;" vertex="1" parent="WIyWlLk6GJQsqaUBKTNV-1">
          <mxGeometry x="102" y="150" width="120" height="40" as="geometry" />
        </mxCell>
        <mxCell id="QayD689soAxfJkQ_zpG7-7" value="" style="edgeStyle=orthogonalEdgeStyle;rounded=0;orthogonalLoop=1;jettySize=auto;html=1;" edge="1" parent="WIyWlLk6GJQsqaUBKTNV-1" source="QayD689soAxfJkQ_zpG7-1" target="QayD689soAxfJkQ_zpG7-6">
          <mxGeometry relative="1" as="geometry" />
        </mxCell>
        <mxCell id="QayD689soAxfJkQ_zpG7-1" value="&lt;br/&gt;&lt;p style=&quot;margin-bottom: 0in&quot; align=&quot;LEFT&quot;&gt;Review position Description&lt;br/&gt;and form selection committee&lt;/p&gt;&lt;br/&gt;" style="rounded=0;whiteSpace=wrap;html=1;" vertex="1" parent="WIyWlLk6GJQsqaUBKTNV-1">
          <mxGeometry x="82" y="233" width="160" height="57" as="geometry" />
        </mxCell>
        <mxCell id="QayD689soAxfJkQ_zpG7-2" style="edgeStyle=orthogonalEdgeStyle;rounded=0;orthogonalLoop=1;jettySize=auto;html=1;exitX=0.5;exitY=1;exitDx=0;exitDy=0;" edge="1" parent="WIyWlLk6GJQsqaUBKTNV-1" source="QayD689soAxfJkQ_zpG7-0" target="QayD689soAxfJkQ_zpG7-0">
          <mxGeometry relative="1" as="geometry" />
        </mxCell>
        <object label="" Yes="" id="QayD689soAxfJkQ_zpG7-9">
          <mxCell style="edgeStyle=orthogonalEdgeStyle;rounded=0;orthogonalLoop=1;jettySize=auto;" edge="1" parent="WIyWlLk6GJQsqaUBKTNV-1" source="QayD689soAxfJkQ_zpG7-6" target="QayD689soAxfJkQ_zpG7-8">
            <mxGeometry relative="1" as="geometry" />
          </mxCell>
        </object>
        <mxCell id="QayD689soAxfJkQ_zpG7-6" value="approved?" style="rhombus;whiteSpace=wrap;html=1;" vertex="1" parent="WIyWlLk6GJQsqaUBKTNV-1">
          <mxGeometry x="122" y="310" width="80" height="80" as="geometry" />
        </mxCell>
        <mxCell id="QayD689soAxfJkQ_zpG7-11" value="" style="edgeStyle=orthogonalEdgeStyle;rounded=0;orthogonalLoop=1;jettySize=auto;html=1;" edge="1" parent="WIyWlLk6GJQsqaUBKTNV-1" source="QayD689soAxfJkQ_zpG7-8" target="QayD689soAxfJkQ_zpG7-10">
          <mxGeometry relative="1" as="geometry" />
        </mxCell>
        <mxCell id="QayD689soAxfJkQ_zpG7-8" value="Advertise" style="whiteSpace=wrap;html=1;" vertex="1" parent="WIyWlLk6GJQsqaUBKTNV-1">
          <mxGeometry x="262" y="320" width="120" height="60" as="geometry" />
        </mxCell>
        <mxCell id="QayD689soAxfJkQ_zpG7-13" value="" style="edgeStyle=orthogonalEdgeStyle;rounded=0;orthogonalLoop=1;jettySize=auto;html=1;" edge="1" parent="WIyWlLk6GJQsqaUBKTNV-1" source="QayD689soAxfJkQ_zpG7-10">
          <mxGeometry relative="1" as="geometry">
            <mxPoint x="522" y="440" as="targetPoint" />
          </mxGeometry>
        </mxCell>
        <mxCell id="QayD689soAxfJkQ_zpG7-10" value="Receive Applications" style="whiteSpace=wrap;html=1;" vertex="1" parent="WIyWlLk6GJQsqaUBKTNV-1">
          <mxGeometry x="462" y="320" width="120" height="60" as="geometry" />
        </mxCell>
        <mxCell id="QayD689soAxfJkQ_zpG7-36" value="" style="edgeStyle=orthogonalEdgeStyle;rounded=0;orthogonalLoop=1;jettySize=auto;html=0;" edge="1" parent="WIyWlLk6GJQsqaUBKTNV-1" source="QayD689soAxfJkQ_zpG7-14" target="QayD689soAxfJkQ_zpG7-16">
          <mxGeometry relative="1" as="geometry" />
        </mxCell>
        <mxCell id="QayD689soAxfJkQ_zpG7-14" value="Plan for interviews" style="whiteSpace=wrap;html=1;" vertex="1" parent="WIyWlLk6GJQsqaUBKTNV-1">
          <mxGeometry x="462" y="440" width="120" height="60" as="geometry" />
        </mxCell>
        <mxCell id="QayD689soAxfJkQ_zpG7-31" value="" style="edgeStyle=orthogonalEdgeStyle;rounded=0;orthogonalLoop=1;jettySize=auto;html=0;" edge="1" parent="WIyWlLk6GJQsqaUBKTNV-1" source="QayD689soAxfJkQ_zpG7-16" target="QayD689soAxfJkQ_zpG7-20">
          <mxGeometry relative="1" as="geometry" />
        </mxCell>
        <mxCell id="QayD689soAxfJkQ_zpG7-16" value="Conduct Interviews" style="whiteSpace=wrap;html=1;" vertex="1" parent="WIyWlLk6GJQsqaUBKTNV-1">
          <mxGeometry x="462" y="560" width="120" height="60" as="geometry" />
        </mxCell>
        <mxCell id="QayD689soAxfJkQ_zpG7-23" value="" style="edgeStyle=orthogonalEdgeStyle;rounded=0;orthogonalLoop=1;jettySize=auto;html=1;" edge="1" parent="WIyWlLk6GJQsqaUBKTNV-1" source="QayD689soAxfJkQ_zpG7-20" target="QayD689soAxfJkQ_zpG7-22">
          <mxGeometry relative="1" as="geometry" />
        </mxCell>
        <mxCell id="QayD689soAxfJkQ_zpG7-20" value="Check References" style="whiteSpace=wrap;html=1;" vertex="1" parent="WIyWlLk6GJQsqaUBKTNV-1">
          <mxGeometry x="462" y="670" width="120" height="60" as="geometry" />
        </mxCell>
        <mxCell id="QayD689soAxfJkQ_zpG7-25" value="" style="edgeStyle=orthogonalEdgeStyle;rounded=0;orthogonalLoop=1;jettySize=auto;html=1;" edge="1" parent="WIyWlLk6GJQsqaUBKTNV-1" source="QayD689soAxfJkQ_zpG7-22" target="QayD689soAxfJkQ_zpG7-24">
          <mxGeometry relative="1" as="geometry" />
        </mxCell>
        <mxCell id="QayD689soAxfJkQ_zpG7-22" value="Notify recruit" style="whiteSpace=wrap;html=1;" vertex="1" parent="WIyWlLk6GJQsqaUBKTNV-1">
          <mxGeometry x="462" y="770" width="120" height="60" as="geometry" />
        </mxCell>
        <mxCell id="QayD689soAxfJkQ_zpG7-24" value="Close position" style="rounded=1;whiteSpace=wrap;html=1;" vertex="1" parent="WIyWlLk6GJQsqaUBKTNV-1">
          <mxGeometry x="462" y="863" width="120" height="40" as="geometry" />
        </mxCell>
        <mxCell id="QayD689soAxfJkQ_zpG7-27" value="Yes" style="text;html=1;strokeColor=none;fillColor=none;align=center;verticalAlign=middle;whiteSpace=wrap;rounded=0;" vertex="1" parent="WIyWlLk6GJQsqaUBKTNV-1">
          <mxGeometry x="212" y="330" width="40" height="20" as="geometry" />
        </mxCell>
        <mxCell id="QayD689soAxfJkQ_zpG7-30" value="" style="edgeStyle=orthogonalEdgeStyle;rounded=0;orthogonalLoop=1;jettySize=auto;html=0;" edge="1" parent="WIyWlLk6GJQsqaUBKTNV-1" source="QayD689soAxfJkQ_zpG7-28" target="QayD689soAxfJkQ_zpG7-16">
          <mxGeometry relative="1" as="geometry" />
        </mxCell>
        <mxCell id="QayD689soAxfJkQ_zpG7-28" value="Candidate Selection" style="shape=process;whiteSpace=wrap;html=1;backgroundOutline=1;" vertex="1" parent="WIyWlLk6GJQsqaUBKTNV-1">
          <mxGeometry x="649" y="560" width="120" height="60" as="geometry" />
        </mxCell>
        <mxCell id="QayD689soAxfJkQ_zpG7-32" value="Recruitment flow chart" style="text;html=1;strokeColor=none;fillColor=none;align=center;verticalAlign=middle;whiteSpace=wrap;rounded=0;fontStyle=5" vertex="1" parent="WIyWlLk6GJQsqaUBKTNV-1">
          <mxGeometry x="222" y="40" width="170" height="20" as="geometry" />
        </mxCell>
        <mxCell id="QayD689soAxfJkQ_zpG7-34" value="" style="edgeStyle=orthogonalEdgeStyle;rounded=0;orthogonalLoop=1;jettySize=auto;html=0;" edge="1" parent="WIyWlLk6GJQsqaUBKTNV-1" source="QayD689soAxfJkQ_zpG7-35" target="QayD689soAxfJkQ_zpG7-14">
          <mxGeometry relative="1" as="geometry">
            <mxPoint x="692" y="470" as="sourcePoint" />
          </mxGeometry>
        </mxCell>
        <mxCell id="QayD689soAxfJkQ_zpG7-35" value="Generate short/long list" style="shape=process;whiteSpace=wrap;html=1;backgroundOutline=1;" vertex="1" parent="WIyWlLk6GJQsqaUBKTNV-1">
          <mxGeometry x="652" y="440" width="120" height="60" as="geometry" />
        </mxCell>
      </root>
    </mxGraphModel>
  </diagram>
</mxfile>
